<svg xmlns="http://www.w3.org/2000/svg" width="32" height="32"><path d="M11.085 6.501a2.36 2.663 0 0 1-.065-.471c0-1.645 1.194-2.978 2.666-2.978.755 0 1.475.36 1.982.986M20.905 6.5c.035-.191.065-.373.065-.471 0-1.645-1.194-2.978-2.666-2.978-.755 0-1.477.36-1.982.986" style="fill:none;fill-opacity:0;fill-rule:evenodd;stroke:#000;stroke-width:.750004;stroke-linejoin:bevel"/><path d="M8.618 11.783a2.618 2.956 0 0 1-1.382-1.459c-.634-1.48-.072-3.266 1.252-3.99.838-.455 2.598.167 2.598.167m12.286 5.282a2.618 2.956 0 0 0 1.383-1.459c.633-1.48.072-3.266-1.254-3.99-.836-.455-2.597.167-2.597.167" style="fill:none;fill-opacity:0;fill-rule:evenodd;stroke:#000;stroke-width:.750004;stroke-linejoin:bevel"/><path d="M6.193 16.751a2.76 3.116 0 0 1-.554-2.144 2.741 3.095 0 0 1 2.979-2.824c.958.094 1.805.745 2.236 1.716m14.943 3.252c.413-.614.609-1.378.553-2.144a2.741 3.095 0 0 0-2.978-2.824c-.957.094-1.804.745-2.237 1.716M8.773 21.951a2.618 2.956 0 0 1-1.865-.358c-1.25-.843-1.654-2.683-.9-4.11.176-.33.404-.62.673-.853m16.537 5.321a2.529 2.74 0 0 0 1.864-.358c1.25-.843 1.652-2.683.9-4.11a2.714 3.063 0 0 0-.673-.853M15.63 27.712a2.618 2.956 0 0 1-1.558 1.212c-1.418.38-2.842-.625-3.182-2.241a2.678 3.023 0 0 1 .702-2.829m4.768 3.858c.37.61.925 1.041 1.558 1.212 1.418.38 2.843-.625 3.182-2.241a2.678 3.023 0 0 0-.702-2.829" style="fill:none;fill-opacity:0;fill-rule:evenodd;stroke:#000;stroke-width:.750004;stroke-linejoin:bevel"/><path d="M10.943 25.45a2.618 2.956 0 0 1-1.558 1.213c-1.417.378-2.842-.625-3.18-2.242a2.678 3.023 0 0 1 .702-2.828m14.138 3.858a2.63 2.85 0 0 0 1.56 1.212c1.416.378 2.84-.625 3.18-2.242a2.678 3.023 0 0 0-.703-2.828" style="fill:none;fill-opacity:0;fill-rule:evenodd;stroke:#000;stroke-width:.750004;stroke-linejoin:bevel"/><path d="M10.27 15.276c.02.618-.029-.252.063-.959.054-.415.532-.852.979-.842.74.019 1.627.235 1.052.104m9.357 1.698c-.019.617.03-.253-.062-.96-.055-.415-.533-.852-.98-.842-.738.018-1.626.235-1.05.104" style="fill:none;fill-opacity:0;fill-rule:evenodd;stroke:#000;stroke-width:.75;stroke-linejoin:bevel"/><path d="M9.563 23.035c.488.28-.21-.093-.713-.527-.296-.254-.403-.938-.179-1.374.373-.722.97-1.493.59-.988m13.167 2.89c-.488.28.21-.094.714-.527.296-.255.402-.938.177-1.375-.372-.72-.969-1.493-.588-.988" style="fill:none;fill-opacity:0;fill-rule:evenodd;stroke:#000;stroke-width:.750007;stroke-linejoin:bevel"/><path d="M15.14 10.31c.68-.093-.27.054-1.1.084-.487.018-1.188-.25-1.375-.557-.31-.506-.463-1.139-.352-.73m4.54 1.204c-.682-.094.269.053 1.098.083.489.017 1.188-.251 1.375-.557.309-.505.464-1.139.353-.73" style="fill:none;fill-opacity:0;fill-rule:evenodd;stroke:#000;stroke-width:.75;stroke-linejoin:bevel"/><path d="M12.827 24.45c.474-.05-.186.027-.763.042-.338.01-.824-.129-.954-.287-.215-.26-.323-.586-.245-.375m8.3.62c-.473-.049.187.027.763.042.338.009.826-.13.955-.287.214-.26.321-.586.245-.375" style="fill:none;fill-opacity:0;fill-rule:evenodd;stroke:#000;stroke-width:.750005;stroke-linejoin:bevel"/><path d="m10.956 6.167.55.139.139 1.029-.94-.48zm10.076 0-.548.139-.14 1.029.94-.48z" style="fill-rule:evenodd;stroke:#000;stroke-width:0;stroke-linejoin:bevel"/><path d="M15.13 3.7h.866v24.6h-.865zm1.73 0h-.865v24.6h.865z" style="fill:#000;fill-opacity:1;fill-rule:evenodd;stroke:#000;stroke-width:0;stroke-linejoin:bevel;stroke-dasharray:none"/><path d="M13.013 28.426c-.972-.253-1.715-1.264-1.717-2.335 0-.496.037-.755.154-1.06l.077-.2.613-.005c1.019-.005 1.415-.093 1.468-.327.031-.14-.017-.221-.19-.319-.153-.085-.315-.096-1.107-.07l-.44.013-.245-.298c-.194-.236-.284-.31-.421-.358-.361-.123-.88-.032-1 .173-.058.1-.057.117.019.293a2 2 0 0 0 .242.382l.162.196-.106.352a2.36 2.663 0 0 0-.106.444c-.003.17-.5.591-.9.759-1.204.505-2.559-.34-2.865-1.784-.13-.609 0-1.444.297-1.913l.075-.12.26.1c.144.056.409.123.59.15.321.049.33.053.42.207.095.161.554.536.96.782.187.113.247.13.385.11a.65.65 0 0 0 .545-.566c.024-.202-.04-.274-.586-.665-.216-.156-.421-.332-.455-.39a.826.932 0 0 1-.08-.347c-.016-.222-.007-.26.116-.491.074-.137.22-.381.323-.54.338-.521.36-.567.36-.737 0-.408-.468-.506-.785-.167-.287.307-.926 1.403-.969 1.658-.024.137-.027.141-.158.115-.891-.183-1.569-.882-1.793-1.851a2.477 2.796 0 0 1 .067-1.42c.123-.363.319-.703.548-.956.102-.112.177-.226.167-.253a5.898 6.658 0 0 0-.285-.447c-.437-.646-.57-1.095-.541-1.811.027-.658.243-1.21.658-1.676q.61-.685 1.477-.745c.517-.038.906.08 1.378.411.214.15.605.57.605.649 0 .02-.043.082-.097.137-.253.269-.338.619-.35 1.458-.008.415.001.503.064.625.166.32.621.439.821.213.1-.112.104-.13.125-.705.015-.417.039-.627.081-.719a.861.972 0 0 1 .484-.4c.068-.014.377.007.687.048.664.088.752.087.875-.017.07-.06.096-.121.103-.269.011-.169-.003-.209-.122-.36a.708.799 0 0 0-.27-.21c-.188-.061-.971-.165-1.26-.168h-.24l-.09-.173c-.148-.275-.586-.755-.897-.982a3.184 3.595 0 0 0-1.094-.506c-.757-.155-1.394-.9-1.571-1.84-.134-.708.076-1.534.54-2.131.16-.204.54-.51.73-.586.53-.21 1.696-.034 2.504.38.208.106.385.184.395.174a3.539 3.995 0 0 0-.064-.557c-.104-.703-.103-1.121.004-1.48.351-1.18 1.392-1.895 2.453-1.688.329.064.72.244.933.426l.12.105v2.871c0 2.259-.01 2.874-.046 2.889-.102.04-1.062.08-1.232.053-.234-.039-.495-.164-.6-.289a2.83 3.196 0 0 1-.26-.52c-.155-.362-.198-.43-.316-.492a.99 1.119 0 0 0-.74.013c-.259.15-.26.299-.011.866.288.654.577.907 1.316 1.149.25.081.368.093.932.092.353-.001.716-.016.802-.032l.157-.03V27.64l-.177.186c-.497.525-1.265.766-1.906.6zm5.966 0c.972-.253 1.715-1.264 1.716-2.335 0-.496-.036-.755-.154-1.06l-.075-.2-.614-.005c-1.02-.005-1.416-.093-1.469-.327-.03-.14.018-.221.19-.319.153-.085.314-.096 1.106-.07l.443.013.245-.298c.194-.236.28-.31.42-.358.36-.123.88-.032.998.173.06.1.059.117-.018.293a1.846 2 0 0 1-.242.382l-.161.196.106.353c.059.194.106.394.106.443.003.17.5.591.899.759 1.205.505 2.56-.34 2.866-1.784.129-.609-.001-1.444-.297-1.913l-.076-.12-.259.1a3.539 3.995 0 0 1-.59.15c-.322.049-.33.053-.421.207-.094.161-.554.536-.96.782-.186.113-.246.13-.385.11a.65.65 0 0 1-.544-.566c-.024-.202.04-.274.586-.665.216-.156.42-.332.455-.39a.826.932 0 0 0 .079-.347c.017-.222.007-.26-.115-.491a8.257 9.322 0 0 0-.323-.54c-.338-.521-.36-.567-.36-.737 0-.408.468-.506.786-.167.286.307.925 1.403.967 1.658.023.137.028.141.158.115.892-.183 1.57-.882 1.793-1.851.093-.392.06-1.047-.066-1.42a2.36 2.663 0 0 0-.548-.956c-.103-.112-.177-.226-.168-.253.01-.03.14-.229.286-.447.436-.646.57-1.095.542-1.811a2.159 2.437 0 0 0-.66-1.676 2.218 2.504 0 0 0-1.477-.745c-.517-.038-.906.08-1.378.411-.213.15-.604.57-.604.649 0 .02.043.082.095.137.254.269.34.619.353 1.458.007.415-.003.503-.065.625-.167.32-.623.439-.822.213-.099-.112-.101-.13-.125-.705-.015-.417-.038-.627-.08-.719a.861.972 0 0 0-.484-.4c-.069-.014-.379.007-.687.048-.665.088-.752.087-.875-.017-.071-.06-.096-.121-.104-.269-.01-.169.003-.209.122-.36a.708.799 0 0 1 .27-.21c.188-.061.972-.165 1.26-.168h.239l.092-.173c.148-.275.584-.755.895-.982a3.138 3.4 0 0 1 1.096-.506c.757-.155 1.394-.9 1.57-1.84.134-.708-.076-1.534-.54-2.132-.159-.203-.54-.508-.731-.585-.529-.21-1.695-.034-2.502.38-.21.106-.386.184-.396.174a3.539 3.995 0 0 1 .065-.557c.104-.703.103-1.121-.004-1.48-.352-1.18-1.392-1.895-2.453-1.688-.329.064-.72.244-.934.426l-.12.105v2.871c0 2.259.01 2.874.047 2.889.101.04 1.061.08 1.232.053.233-.039.494-.164.599-.29.044-.052.162-.285.26-.518.155-.363.198-.43.317-.493a.99 1.119 0 0 1 .739.013c.26.15.26.298.012.866-.288.654-.578.907-1.316 1.149-.25.081-.37.093-.932.092a8.307 9 0 0 1-.802-.032l-.156-.03V27.64l.175.186c.497.525 1.264.766 1.907.6z" style="fill:#f1d4ff;fill-opacity:1;fill-rule:evenodd;stroke:#f1d4ff;stroke-width:.4;stroke-linejoin:bevel;stroke-dasharray:none;stroke-opacity:1"/></svg>