<svg xmlns="http://www.w3.org/2000/svg" width="32" height="32"><path d="m-7.477-2.381 1.625.163c.633.064 1.088.583 1.022 1.16l-3.822 33.382c-.066.577-.506.993-.978.93l-11.633-1.566-11.41 1.58c-.47.065-.91-.35-.98-.927l-3.982-33.369c-.069-.577.386-1.098 1.02-1.163l1.338-.139" style="fill:none;fill-opacity:0;fill-rule:evenodd;stroke:#404040;stroke-width:1.32082;stroke-dasharray:none;stroke-opacity:1" transform="matrix(.85318 0 0 .67185 33.954 6.55)"/><path fill="none" d="m4.543 2.83 11.542 2.383L27.372 2.64c.467-.107.823.39.77.79l-3.04 23.15c-.052.4-.37.696-.709.66l-8.42-.878-8.57 1.087c-.354.045-.684-.265-.734-.665L3.797 3.616c-.05-.401.284-.753.746-.786Z" style="fill:#000;fill-opacity:0;fill-rule:evenodd;stroke:#404040;stroke-width:1.00001;stroke-dasharray:none;stroke-opacity:1"/><path d="M16.085 5.213h.938v21.209h-.938z" style="fill:#404040;fill-opacity:1;fill-rule:evenodd;stroke:#404040;stroke-width:.0999998;stroke-dasharray:none;stroke-opacity:1"/><path d="m20.843 8.386.032.705q-1.096.097-1.798.836-.75.787-.696 1.968.046 1.03.547 1.653.506.616 1.5.837.495.105.93.168.441.062.819.171.5.143.75.429.258.285.286.91.034.727-.459 1.186-.487.459-1.402.5-.646.029-1.396-.26a4 4 0 0 1-1.338-.857l-.069.003.071 1.566q.678.343 1.322.504.619.151 1.372.127l.034.749 1.09-.05-.04-.881q.134-.046.255-.105.521-.252.9-.674.347-.389.521-.935.18-.545.156-1.095-.045-1.01-.49-1.554-.442-.543-1.28-.784-.414-.114-1.006-.214-.591-.1-.914-.175-.609-.15-.862-.473-.255-.324-.28-.911-.03-.658.428-1.096.464-.439 1.254-.474.72-.032 1.42.24.704.266 1.147.702l.069-.003-.067-1.479a5.6 5.6 0 0 0-1.68-.507l-.035-.776z" style="font-size:13.6292px;font-family:Cambria;-inkscape-font-specification:&quot;Cambria, Normal&quot;;text-align:start;writing-mode:lr-tb;direction:ltr;text-anchor:start;fill:#404040;fill-opacity:1;fill-rule:evenodd;stroke:#404040;stroke-width:.0999997;stroke-dasharray:none;stroke-opacity:1"/></svg>