<svg xmlns="http://www.w3.org/2000/svg" width="32" height="32"><g style="stroke-width:1.47055" transform="matrix(.67706 0 0 .68299 5.14 5.049)"><path d="M16 7.371a3.6 2.786 0 0 1 0 .064" style="fill:red;fill-rule:evenodd;stroke-width:2.05558"/><ellipse cx="16" cy="16" rx="5.942" ry="5.796" style="fill:#2b2b2b;fill-opacity:1;fill-rule:evenodd;stroke:#2b2b2b;stroke-width:1.47054;stroke-opacity:1"/><ellipse cx="16" cy="16" rx="12.258" ry="12.072" style="fill:none;fill-rule:evenodd;stroke:#2b2b2b;stroke-width:2.94109;stroke-dasharray:none;stroke-opacity:1"/><path d="M14.192.266h3.616v3.829h-3.616z" style="fill:#2b2b2b;fill-opacity:1;fill-rule:evenodd;stroke:#2b2b2b;stroke-width:0;stroke-dasharray:none;stroke-opacity:1"/><path d="M21.207-16.808h3.616v3.829h-3.616zm-.546 29.856h3.616v3.829h-3.616ZM6.147-1.927h3.616v3.829H6.147Zm29.492.058h3.616V1.96h-3.616z" style="fill:#2b2b2b;fill-opacity:1;fill-rule:evenodd;stroke:#fff;stroke-width:0;stroke-dasharray:none;stroke-opacity:1" transform="rotate(45)"/><path d="M14.192-31.847h3.616v3.829h-3.616zm0 27.788h3.616V-.23h-3.616z" style="fill:#2b2b2b;fill-opacity:1;fill-rule:evenodd;stroke:#fff;stroke-width:0;stroke-dasharray:none;stroke-opacity:1" transform="rotate(90)"/><path d="M14.192 27.974h3.616v3.829h-3.616z" style="fill:#2b2b2b;fill-opacity:1;fill-rule:evenodd;stroke:#fff;stroke-width:0;stroke-dasharray:none;stroke-opacity:1"/></g></svg>