<svg xmlns="http://www.w3.org/2000/svg" width="32" height="32"><path d="M16 .656c3.055 0 5.532 2.806 5.532 6.268s-2.442 8.226-5.48 8.213c-2.976-.013-5.584-4.752-5.584-8.213 0-3.462 2.477-6.268 5.532-6.268" style="fill-rule:evenodd;stroke:#000;stroke-width:.846308"/><path d="M12.291 16.482c3.832 2.313 3.58 2.161 8.522-.142 1.874-.873 3.273 1.317 4.546 4.269 2.094 4.854 3.918 11.2 2.058 9.91-2.294-.707 1.307-.211-11.11-.062-12.85 0-10.64-.649-12.13.137-1.189.626.037-5.228 2.35-9.726 1.878-3.652 3.967-5.472 5.764-4.386z" style="fill-rule:evenodd;stroke:#000;stroke-width:1.36732"/><path d="M16 7.371a3.6 2.786 0 0 1 0 .064" style="fill:red;fill-rule:evenodd;stroke-width:1.39784"/><ellipse cx="15.954" cy="24.361" rx="5.919" ry="6.143" style="fill:#fff;fill-opacity:1;fill-rule:evenodd;stroke:#fff;stroke-width:1.81135;stroke-opacity:0"/><path d="M20.281 23.726v1.27h-8.654v-1.27z" style="fill:#ff4141;fill-opacity:1;fill-rule:evenodd;stroke:#000;stroke-width:1.09645;stroke-opacity:0"/></svg>