<svg xmlns="http://www.w3.org/2000/svg" xmlns:xlink="http://www.w3.org/1999/xlink" width="32" height="32"><defs><linearGradient id="a"><stop offset=".607" style="stop-color:#f16b62;stop-opacity:1"/><stop offset="1" style="stop-color:#bb6879;stop-opacity:1"/></linearGradient><linearGradient xlink:href="#a" id="b" x1="18.603" x2="23.872" y1="6.635" y2="3.389" gradientTransform="matrix(1.32512 0 0 2.22961 -2.988 -28.896)" gradientUnits="userSpaceOnUse"/></defs><g style="stroke-width:.73746"><path d="M-11.192 12.67 3.32 17.72v2.239H-.467z" style="fill:#e2baa3;fill-opacity:1;fill-rule:evenodd;stroke:#f1afff;stroke-width:0;stroke-linejoin:bevel;stroke-dasharray:none;stroke-opacity:1" transform="matrix(-.53219 -1.13268 2.14267 1.12532 -31.072 3.66)"/><path d="m1.972 30.62 1.41-4.552 1.38.38 1.276.915.09 1.579z" style="fill:#7c7d7a;fill-rule:evenodd;stroke:#f1afff;stroke-width:0;stroke-linejoin:bevel"/><path d="M19.424 17.924h29.757v4.62H19.424Z" style="fill:#ebab78;fill-opacity:1;fill-rule:evenodd;stroke:#f1afff;stroke-width:0;stroke-linejoin:bevel;stroke-dasharray:none;stroke-opacity:1" transform="matrix(.50802 -.53094 1.46892 1.477 -31.072 3.66)"/></g><g style="stroke-width:.405067" transform="matrix(3.1158 .01522 .02422 1.95614 -49.807 -4.781)"><path d="M21.665 4.48a4.906 2.044 64.787 0 1-.028.045" style="fill:red;fill-rule:evenodd;stroke-width:.566218"/><rect width="4.239" height=".337" x="23.861" y="-17.595" ry=".107" style="fill:#bcb8be;fill-opacity:1;fill-rule:evenodd;stroke:#f1afff;stroke-width:0;stroke-linejoin:bevel;stroke-dasharray:none;stroke-opacity:1" transform="matrix(.52505 .85107 -.52527 .85093 0 0)"/><rect width="4.239" height=".18" x="23.861" y="-17.863" ry=".057" style="fill:#bcb8be;fill-opacity:1;fill-rule:evenodd;stroke:#f1afff;stroke-width:0;stroke-linejoin:bevel;stroke-dasharray:none;stroke-opacity:1" transform="matrix(.52505 .85107 -.52527 .85093 0 0)"/><rect width="4.239" height=".104" x="23.861" y="-17.679" ry=".033" style="fill:#282022;fill-opacity:1;fill-rule:evenodd;stroke:#f1afff;stroke-width:0;stroke-linejoin:bevel;stroke-dasharray:none;stroke-opacity:1" transform="matrix(.52505 .85107 -.52527 .85093 0 0)"/><rect width="4.239" height=".104" x="23.861" y="-17.263" ry=".033" style="fill:#282022;fill-opacity:1;fill-rule:evenodd;stroke:#f1afff;stroke-width:0;stroke-linejoin:bevel;stroke-dasharray:none;stroke-opacity:1" transform="matrix(.52505 .85107 -.52527 .85093 0 0)"/><rect width="4.239" height=".18" x="23.861" y="-17.173" ry=".057" style="fill:#bcb8be;fill-opacity:1;fill-rule:evenodd;stroke:#f1afff;stroke-width:0;stroke-linejoin:bevel;stroke-dasharray:none;stroke-opacity:1" transform="matrix(.52505 .85107 -.52527 .85093 0 0)"/><rect width="4.267" height="1.242" x="23.802" y="-19.143" ry=".173" style="fill:url(#b);fill-opacity:1;fill-rule:evenodd;stroke:#f1afff;stroke-width:0;stroke-linejoin:bevel;stroke-dasharray:none;stroke-opacity:1" transform="matrix(.52292 .85238 -.5286 .84887 0 0)"/></g></svg>