<svg xmlns="http://www.w3.org/2000/svg" width="32" height="32" viewBox="0 0 8.467 8.467"><g fill="none"><rect width="7.898" height="7.898" x=".291" y=".291" rx=".1" ry=".1" style="fill:#2b2b2b;fill-opacity:0;fill-rule:evenodd;stroke:#2b2b2b;stroke-width:.582083"/><path d="M.253 6.04h3.341v.008H.253z" style="fill:#2b2b2b;fill-opacity:0;fill-rule:evenodd;stroke:#2b2b2b;stroke-width:.582506" transform="matrix(.71413 -.70001 .7375 .67535 0 0)"/><path d="M6.776 2.427h1.128v.008H6.776zM7.219 9.141h1.128v.008H7.219z" style="fill:#2b2b2b;fill-opacity:0;fill-rule:evenodd;stroke:#2b2b2b;stroke-width:.659223" transform="matrix(.9977 -.06775 -.57195 .8203 0 0)"/><path d="M6.955 3.228h1.128v.008H6.955zM6.627 9.426h1.128v.008H6.627z" style="fill:#2b2b2b;fill-opacity:0;fill-rule:evenodd;stroke:#2b2b2b;stroke-width:.659223" transform="matrix(-.18112 .98346 .88018 -.47463 0 0)"/><path d="M-3.997 6.03h3.343v.008h-3.343z" style="fill:#2b2b2b;fill-opacity:0;fill-rule:evenodd;stroke:#2b2b2b;stroke-width:.582507" transform="matrix(.72846 -.68509 .72337 .69046 0 0)"/></g></svg>