<svg xmlns="http://www.w3.org/2000/svg" xmlns:xlink="http://www.w3.org/1999/xlink" width="32" height="32"><defs><linearGradient id="f"><stop offset="0" style="stop-color:#630000;stop-opacity:0"/><stop offset="1" style="stop-color:#630000;stop-opacity:0"/></linearGradient><linearGradient id="d"><stop offset="0" style="stop-color:#9eabb0;stop-opacity:1"/><stop offset="1" style="stop-color:#9eabb0;stop-opacity:0"/></linearGradient><linearGradient id="c"><stop offset="0" style="stop-color:#9eabb0;stop-opacity:1"/><stop offset=".155" style="stop-color:#9eabb0;stop-opacity:.84313725"/><stop offset="1" style="stop-color:#9eabb0;stop-opacity:0"/></linearGradient><linearGradient id="b"><stop offset="0" style="stop-color:#9eabb0;stop-opacity:1"/><stop offset="1" style="stop-color:#9eabb0;stop-opacity:0"/></linearGradient><linearGradient id="a"><stop offset="0" style="stop-color:#d76cff;stop-opacity:1"/><stop offset="1" style="stop-color:#d76cff;stop-opacity:0"/></linearGradient><linearGradient xlink:href="#a" id="l" x1="15.462" x2="17.128" y1="8.187" y2="8.187" gradientTransform="matrix(.63722 0 0 .66378 5.935 5.275)" gradientUnits="userSpaceOnUse"/><linearGradient xlink:href="#b" id="j" x1="13.414" x2="19.389" y1="8.531" y2="8.531" gradientTransform="matrix(.63722 0 0 .66378 5.935 5.275)" gradientUnits="userSpaceOnUse"/><linearGradient xlink:href="#c" id="k" x1="14.396" x2="18.282" y1="8.375" y2="8.375" gradientTransform="matrix(.63722 0 0 .66378 5.935 5.275)" gradientUnits="userSpaceOnUse"/><linearGradient xlink:href="#d" id="h" x1="8.861" x2="23.829" y1="10.894" y2="10.894" gradientTransform="matrix(.63722 0 0 .66378 5.935 5.275)" gradientUnits="userSpaceOnUse"/><linearGradient xlink:href="#f" id="g" x1="4.358" x2="28.343" y1="15.442" y2="15.442" gradientTransform="matrix(.63722 0 0 .66378 5.935 5.275)" gradientUnits="userSpaceOnUse"/></defs><path d="M16.806 10.197a2.294 1.85 0 0 1 0 .043" style="fill:red;fill-rule:evenodd;stroke-width:1.39784" transform="translate(-.362 1.5)"/><path d="M8.024 6.585h8.336m-.002-.001h8.336" style="display:inline;fill:none;fill-rule:evenodd;stroke:#636363;stroke-width:.999998px;stroke-linecap:butt;stroke-linejoin:miter;stroke-opacity:1" transform="translate(-.362 1.5)"/><path d="M14.649 14.804v6.944" style="display:inline;fill:none;fill-rule:evenodd;stroke:#636363;stroke-width:1.00157;stroke-linecap:butt;stroke-linejoin:miter;stroke-dasharray:none;stroke-opacity:1" transform="translate(-.362 1.5)"/><path d="m8.42 6.783 6.301 8.231m-.226 6.376 3.446 3.29m.082-9.789.076 10.154m-.146-9.958 6.35-8.318" style="display:inline;fill:none;fill-rule:evenodd;stroke:#636363;stroke-width:.999998px;stroke-linecap:butt;stroke-linejoin:miter;stroke-opacity:1" transform="translate(-.362 1.5)"/><path fill="none" d="m16.356 22.751-1.36-1.296v-6.656l-2.983-3.89-2.982-3.891 3.659-.01c2.013-.007 5.308-.007 7.323 0l3.664.01-2.993 3.919-2.993 3.919.03 4.596c.016 2.527.02 4.596.012 4.596s-.63-.584-1.377-1.297z" style="fill:url(#g);fill-opacity:0;fill-rule:evenodd;stroke:#636363;stroke-width:1.00157;stroke-linejoin:round;stroke-opacity:1" transform="translate(-.362 1.5)"/><path d="m9.74 7.37 2.77 3.615c1.57 2.047 2.787 3.669 2.808 3.743.019.072.036 1.572.036 3.355v3.226l1 .954c.55.525 1.009.956 1.02.956.013 0 .013-1.902 0-4.225-.014-2.865-.007-4.25.02-4.301.035-.064 5.334-7.026 5.519-7.25.057-.069-.259-.073-6.557-.073z" style="fill:none;fill-opacity:.5;fill-rule:evenodd;stroke:#636363;stroke-width:1.00157;stroke-linejoin:round;stroke-opacity:1" transform="translate(-.362 1.5)"/><path d="m16.36 21.783-.648-.616-.005-1.308c-.002-.72-.016-2.197-.03-3.282l-.025-1.974-.214-.308C15.1 13.813 14 12.357 12.15 9.942L10.45 7.723l2.263-.013c1.245-.007 3.896 0 5.892.015l3.629.029-1.838 2.411c-1.973 2.59-3.252 4.282-3.312 4.383-.021.036-.045 1.678-.057 3.956l-.02 3.895z" style="opacity:.5;fill:none;fill-opacity:.5;fill-rule:evenodd;stroke:#636363;stroke-width:1.00157;stroke-linejoin:round;stroke-opacity:1" transform="translate(-.362 1.5)"/><path d="m16.338 15.442-.03-1.118-.225-.313a231 231 0 0 0-2.932-3.903l-1.25-1.638 2.224-.011c1.223-.006 3.226-.006 4.45 0l2.225.01-.342.457c-.188.251-1.014 1.343-1.834 2.427-1.952 2.578-2.03 2.682-2.122 2.846-.072.126-.082.246-.106 1.25l-.027 1.11z" style="opacity:.5;fill:url(#h);fill-opacity:.5;fill-rule:evenodd;stroke:#636363;stroke-width:1.00157;stroke-linejoin:round;stroke-opacity:1" transform="translate(-.362 1.5)"/><path d="M16.033 13.355a303 303 0 0 0-2.44-3.236l-.985-1.296H20.1l-.196.258-1.857 2.46c-.913 1.208-1.673 2.202-1.69 2.207-.015.006-.162-.17-.325-.393z" style="opacity:.5;fill:none;fill-opacity:.5;fill-rule:evenodd;stroke:#636363;stroke-width:1.00157;stroke-linejoin:round;stroke-opacity:1" transform="translate(-.362 1.5)"/><path d="M15.953 12.67a382 382 0 0 0-1.476-1.96 124.258 129.436 0 0 1-1.129-1.504c-.024-.04.59-.052 3.018-.052h3.049l-.964 1.276c-1.555 2.06-2.066 2.727-2.094 2.738-.015.005-.197-.22-.404-.498z" style="opacity:.5;fill:none;fill-opacity:.5;fill-rule:evenodd;stroke:#636363;stroke-width:1.00157;stroke-linejoin:round;stroke-opacity:1" transform="translate(-.362 1.5)"/><path d="m15.183 11.072-1.146-1.524.987-.025c1.531-.04 3.683-.04 3.669-.002-.025.063-2.317 3.076-2.34 3.076-.013 0-.54-.687-1.17-1.525z" style="opacity:.5;fill:none;fill-opacity:.5;fill-rule:evenodd;stroke:#636363;stroke-width:1.00157;stroke-linejoin:round;stroke-opacity:1" transform="translate(-.362 1.5)"/><path d="M15.542 10.971c-.559-.742-.772-1.053-.736-1.077.067-.045 3.186-.044 3.17 0-.024.062-1.601 2.123-1.624 2.122-.013 0-.377-.47-.81-1.045z" style="opacity:.5;fill:url(#j);fill-opacity:.5;fill-rule:evenodd;stroke:#636363;stroke-width:1.00157;stroke-linejoin:round;stroke-opacity:1" transform="translate(-.362 1.5)"/><path d="M16.147 11.197a59.262 61.731 0 0 1-.45-.6l-.27-.364h.92c.505 0 .918.01.918.021 0 .034-.888 1.182-.914 1.182a1.5 1.5 0 0 1-.204-.24z" style="opacity:.5;fill:url(#k);fill-opacity:.5;fill-rule:evenodd;stroke:#636363;stroke-width:1.00157;stroke-linejoin:round;stroke-opacity:1" transform="translate(-.362 1.5)"/><path d="m16.213 10.71-.107-.146.152.004a.8.8 0 0 1 .223.033c.069.027.068.035-.013.142-.046.062-.1.113-.117.113s-.08-.067-.139-.146z" style="opacity:.5;fill:url(#l);fill-opacity:1;fill-rule:evenodd;stroke:#636363;stroke-width:1.00157;stroke-linejoin:round;stroke-opacity:1" transform="translate(-.362 1.5)"/><ellipse cx="16.003" cy="15.732" rx="15.285" ry="15.201" style="opacity:.5;fill:#364e59;fill-opacity:.5;fill-rule:evenodd;stroke:#364e59;stroke-width:1.00167;stroke-linejoin:round;stroke-opacity:1" transform="skewY(1.078)scale(.99982 1)"/></svg>