<svg xmlns="http://www.w3.org/2000/svg" xmlns:xlink="http://www.w3.org/1999/xlink" width="32" height="32"><defs><linearGradient id="a"><stop offset="0" style="stop-color:#f7bd36;stop-opacity:1"/><stop offset="1" style="stop-color:#f7bd36;stop-opacity:1"/></linearGradient><linearGradient xlink:href="#a" id="b" x1="-29.063" x2="-8.813" y1="20.625" y2="20.625" gradientUnits="userSpaceOnUse"/><linearGradient xlink:href="#a" id="c" x1="-29.063" x2="-8.813" y1="20.625" y2="20.625" gradientUnits="userSpaceOnUse"/><linearGradient xlink:href="#a" id="d" x1="-29.063" x2="-8.813" y1="20.625" y2="20.625" gradientUnits="userSpaceOnUse"/></defs><path fill="none" d="M6.043 1.76v3.126H2.574V28.9h26.852V1.759Z" style="fill:#000;fill-opacity:0;fill-rule:evenodd;stroke:#000;stroke-width:.999999;stroke-dasharray:none;stroke-opacity:1"/><path fill="none" d="M5.88 1.623 2.419 4.911" style="fill:#000;fill-opacity:0;fill-rule:evenodd;stroke:#000;stroke-width:.999992;stroke-dasharray:none;stroke-opacity:1"/><path fill="none" d="M11.87 5.241h15.577M11.87 8.494h15.577M11.87 11.747h15.577M8.044 5.241h2.038" style="fill:#000;fill-opacity:0;fill-rule:evenodd;stroke:#000;stroke-width:1;stroke-linecap:round;stroke-dasharray:none;stroke-opacity:1"/><path fill="none" d="M8.044 8.494h2.008" style="fill:#000;fill-opacity:0;fill-rule:evenodd;stroke:#000;stroke-width:.999999;stroke-linecap:round;stroke-dasharray:none;stroke-opacity:1"/><path fill="none" d="M8.044 11.747h2.142" style="fill:#000;fill-opacity:0;fill-rule:evenodd;stroke:#000;stroke-width:1;stroke-linecap:round;stroke-dasharray:none;stroke-opacity:1"/><path d="M4.994 22.549h2.917v4.64H4.994z" style="fill:#f6616c;fill-opacity:1;fill-rule:evenodd;stroke:#000;stroke-width:1;stroke-linecap:round;stroke-dasharray:none;stroke-opacity:1"/><path d="M11.229 19.148h2.917v8.042h-2.917z" style="fill:#f7da73;fill-opacity:1;fill-rule:evenodd;stroke:#000;stroke-width:1;stroke-linecap:round;stroke-dasharray:none;stroke-opacity:1"/><path d="M17.464 20.187h2.917v7.003h-2.917z" style="fill:#69edbc;fill-opacity:1;fill-rule:evenodd;stroke:#000;stroke-width:.999996;stroke-linecap:round;stroke-dasharray:none;stroke-opacity:1"/><path d="M23.698 17.069h2.917v10.12h-2.917z" style="fill:#86c3f6;fill-opacity:1;fill-rule:evenodd;stroke:#000;stroke-width:1;stroke-linecap:round;stroke-dasharray:none;stroke-opacity:1"/><path fill="none" d="m6.09 20.562 6.968-4.932 5.821 2.174 6.636-4.49M22.988 13.172l2.527.142M24.664 15.78l.851-2.466" style="fill:#f6616c;fill-opacity:0;fill-rule:evenodd;stroke:#000;stroke-width:1;stroke-linecap:round;stroke-dasharray:none;stroke-opacity:1"/><g style="stroke-width:.926495;stroke-dasharray:none"><g style="fill:url(#b);fill-opacity:1;stroke-width:.926495;stroke-dasharray:none" transform="matrix(.5557 0 0 .5241 36.238 15.398)"><ellipse cx="-18.938" cy="20.625" rx="9.625" ry="9.5" style="fill:url(#c);fill-opacity:1;fill-rule:evenodd;stroke:#000;stroke-width:.926495;stroke-linecap:round;stroke-dasharray:none;stroke-opacity:1"/><ellipse cx="-18.938" cy="20.625" rx="7.75" ry="7.781" style="fill:url(#d);fill-opacity:1;fill-rule:evenodd;stroke:#000;stroke-width:.926495;stroke-linecap:round;stroke-dasharray:none;stroke-opacity:1"/></g><text xml:space="preserve" x="-23.547" y="25.472" style="font-size:13.3333px;font-family:sans-serif;-inkscape-font-specification:sans-serif;text-align:start;writing-mode:lr-tb;direction:ltr;text-anchor:start;fill:#f6616c;fill-opacity:0;fill-rule:evenodd;stroke:#000;stroke-width:.926495;stroke-linecap:round;stroke-dasharray:none;stroke-opacity:1" transform="matrix(.5557 0 0 .5241 36.238 15.398)"><tspan x="-23.547" y="25.472" style="font-style:normal;font-variant:normal;font-weight:400;font-stretch:normal;font-size:13.3333px;font-family:&quot;sans serif&quot;;-inkscape-font-specification:&quot;sans serif&quot;;fill:#000;fill-opacity:1;stroke-width:.926495;stroke-dasharray:none">S</tspan></text><path d="m-18.937 14.688-.035 1.093M-18.937 25.472l-.035 1.094" style="fill:#000;fill-opacity:1;fill-rule:evenodd;stroke:#000;stroke-width:.926495;stroke-linecap:round;stroke-dasharray:none;stroke-opacity:1" transform="matrix(.5557 0 0 .5241 36.238 15.398)"/></g></svg>