<svg xmlns="http://www.w3.org/2000/svg" width="32" height="32"><g style="stroke-width:1.34055"><path fill="none" d="M2.456 10.227h27.088v19.464H2.456z" style="fill:#fff;fill-opacity:0;fill-rule:evenodd;stroke:#000;stroke-width:.5;stroke-dasharray:none;stroke-opacity:1" transform="translate(0 .844)"/><path fill="none" d="M10.647 14.357h10.956a2 1.484 0 0 1 2 1.483v2.064a2 1.484 0 0 1-2 1.484H10.647a2 1.484 0 0 1-2-1.484V15.84a2 1.484 0 0 1 2-1.483z" style="fill:#fff;fill-opacity:0;fill-rule:evenodd;stroke:#000;stroke-width:.5;stroke-dasharray:none;stroke-opacity:1" transform="translate(0 .844)"/><path d="m2.4 10.146 2.09-2.163M28.029 7.538l1.548 2.578M22.343 5.518l3.896.004" style="fill:none;fill-rule:evenodd;stroke:#000;stroke-width:.5;stroke-linecap:butt;stroke-linejoin:miter;stroke-dasharray:none;stroke-opacity:1" transform="translate(0 .844)"/><path d="M4.891 10.122a1 1 0 0 1-.008-.087V6.888a.5.5 0 0 1 .5-.5h15.851M27.567 6.846l.001.042v3.147a1 1 0 0 1-.007.087" style="fill:none;fill-opacity:0;fill-rule:evenodd;stroke:#000;stroke-width:.5" transform="translate(0 .844)"/><path d="M20.99 6.63V5.73a.88 1.974 0 0 1 .88-1.974h4.82a.88 1.974 0 0 1 .88 1.974v1.167" style="fill:none;fill-opacity:0;fill-rule:evenodd;stroke:#000;stroke-width:.500001;stroke-dasharray:none;stroke-opacity:1" transform="translate(0 .844)"/><path d="M5.43 11.196a.437.61 0 0 1-.007-.107V7.255a.437.61 0 0 1 .437-.609h13.866" style="fill:none;fill-opacity:0;fill-rule:evenodd;stroke:#000;stroke-width:.670274" transform="matrix(1 0 0 .55646 .554 1.006)"/><path d="M19.41 6.924V5.865a.866 2.318 0 0 1 .866-2.318h4.742a.866 2.318 0 0 1 .866 2.318v.177" style="fill:none;fill-opacity:0;fill-rule:evenodd;stroke:#000;stroke-width:.670276;stroke-dasharray:none;stroke-opacity:1" transform="matrix(1 0 0 .55646 .554 1.006)"/><path d="M6.426 6.542a.38.37 0 0 1-.006-.065V4.145a.38.37 0 0 1 .38-.37h12.073" style="fill:none;fill-opacity:0;fill-rule:evenodd;stroke:#000;stroke-width:.670274" transform="matrix(1 0 0 .55646 .554 1.006)"/><path d="M18.563 4.087V3.028A.798 2.318 0 0 1 19.36.71h4.372a.798 2.318 0 0 1 .799 2.318v.177" style="fill:none;fill-opacity:0;fill-rule:evenodd;stroke:#000;stroke-width:.670276;stroke-dasharray:none;stroke-opacity:1" transform="matrix(1 0 0 .55646 .554 1.006)"/></g></svg>