<svg xmlns="http://www.w3.org/2000/svg" width="32" height="32"><path d="M4.893 2.582c-.99 0-1.79.716-1.791 1.6v23.212c0 .883.802 1.599 1.79 1.598h20.436V6.807H6.736c-1.281 0-2.32-.594-2.32-1.326v-.31c0-.732 1.039-1.326 2.32-1.326h18.592V2.582Zm10.923 5.13h1.424V9.16q.826.08 1.569.263 1.305.327 2.31.806v2.547h-.14q-.847-.785-2.231-1.296a7.9 7.9 0 0 0-2.818-.52q-1.583 0-2.55.717-.954.719-.954 1.85 0 1.011.476 1.588.478.577 1.684.883.638.151 1.812.369 1.176.218 1.993.446 1.652.48 2.488 1.448.838.969.838 2.71 0 .945-.408 1.871a4.4 4.4 0 0 1-1.127 1.568 5.9 5.9 0 0 1-1.862 1.088q-.492.182-1.08.279v1.514h-1.424v-1.402h-.045q-1.603 0-2.888-.326a14 14 0 0 1-2.6-.967v-2.7h.14a8 8 0 0 0 2.6 1.578q1.474.555 2.768.555 1.832 0 2.848-.752 1.025-.75 1.025-2.001 0-1.079-.488-1.59-.478-.51-1.463-.793a14 14 0 0 0-1.623-.36 33 33 0 0 1-1.842-.36q-1.971-.456-2.928-1.555-.946-1.11-.947-2.884 0-2.035 1.574-3.33 1.533-1.272 3.87-1.305z" style="fill:#404040;fill-opacity:1;fill-rule:evenodd;stroke:#404040;stroke-width:.0999999;stroke-opacity:1"/><path d="M26.028 6.807v4.154h.886a1.288.797 0 0 0 1.288-.797v-2.56a1.288.797 0 0 0-1.288-.797zm0 6.01v4.154h.886a1.288.797 0 0 0 1.288-.797v-2.56a1.288.797 0 0 0-1.288-.798zm0 6.01v4.153h.886a1.288.797 0 0 0 1.288-.796v-2.561a1.288.797 0 0 0-1.288-.797zm0 6.009v4.154h.886a1.288.797 0 0 0 1.288-.797v-2.56a1.288.797 0 0 0-1.288-.797z" style="fill:#404040;fill-opacity:1;fill-rule:evenodd;stroke:#404040;stroke-width:.1;stroke-opacity:1"/></svg>