<svg xmlns="http://www.w3.org/2000/svg" width="210mm" height="297mm" viewBox="0 0 210 297"><g style="stroke-width:.749449"><g style="stroke-width:.749449"><path d="M45.044 185.969h.318a3.45 3.45 45 0 1 3.45 3.45v65.63a3.45 3.45 135 0 1-3.45 3.451h-.318a3.45 3.45 45 0 1-3.45-3.45v-65.63a3.45 3.45 135 0 1 3.45-3.451" style="fill:#404040;fill-rule:evenodd;stroke-width:.749449;stroke-linecap:round" transform="matrix(1.88292 -1.88908 1.46497 1.63172 -276.09 -97.02)"/><path d="M45.045 185.238a4.193 4.193 0 0 0-4.182 4.182v65.629c0 2.3 1.881 4.181 4.182 4.181h.316c2.3 0 4.182-1.88 4.182-4.181v-65.63c0-2.3-1.881-4.18-4.182-4.18zm0 1.461h.316a2.71 2.71 0 0 1 2.721 2.72v65.63a2.71 2.71 0 0 1-2.72 2.72h-.317a2.71 2.71 0 0 1-2.72-2.72v-65.63a2.71 2.71 0 0 1 2.72-2.72" style="fill-rule:evenodd;stroke-width:.749449;stroke-linecap:round" transform="matrix(1.88292 -1.88908 1.46497 1.63172 -276.09 -97.02)"/></g><g style="stroke-width:.749449"><path d="M130.281 112.234A45.031 43.484 0 0 1 85.25 155.72a45.031 43.484 0 0 1-45.031-43.485A45.031 43.484 0 0 1 85.25 68.75a45.031 43.484 0 0 1 45.031 43.484" style="fill:#f3f3f3;fill-rule:evenodd;stroke-width:.749449;stroke-linecap:round" transform="matrix(1.29777 0 0 1.37188 -32.546 -39.075)"/><path d="M85.25 66.766c-25.906 0-47.016 20.342-47.016 45.468s21.11 45.47 47.016 45.47 47.016-20.343 47.016-45.47-21.11-45.468-47.016-45.468m0 3.968c23.834 0 43.047 18.595 43.047 41.5s-19.213 41.5-43.047 41.5-43.047-18.594-43.047-41.5 19.213-41.5 43.047-41.5" style="fill-rule:evenodd;stroke-width:.749449;stroke-linecap:round" transform="matrix(1.29777 0 0 1.37188 -32.546 -39.075)"/></g><path d="M61.47 85.324a1.98 1.98 0 0 0-1.51.17c-2.523 1.395-4.8 3.468-6.722 6.047-3.978 5.34-6.145 12.41-5.986 19.363a1.984 1.984 0 0 0 2.03 1.94 1.984 1.984 0 0 0 1.939-2.03c-.139-6.052 1.823-12.37 5.199-16.902 1.63-2.188 3.514-3.87 5.46-4.945a1.984 1.984 0 0 0 .778-2.696 1.98 1.98 0 0 0-1.187-.947" style="fill-rule:evenodd;stroke-width:.749449;stroke-linecap:round" transform="matrix(1.29777 0 0 1.37188 -32.546 -39.075)"/></g></svg>