<svg xmlns="http://www.w3.org/2000/svg" width="32" height="32"><path d="M3.669 18.016A12.258 12.072 0 0 1 15.927 5.944a12.258 12.072 0 0 1 12.258 12.072" style="fill:none;fill-rule:evenodd;stroke:#364e59;stroke-width:2;stroke-dasharray:none;stroke-opacity:1"/><path d="M14.119 2.282h3.616v3.829h-3.616zM5.636 5l2.557 2.557-2.708 2.707-2.557-2.556Zm21.171.127 2.557 2.556-2.707 2.708L24.1 7.834ZM27.945 16.207v1.817h3.83v-1.818zm-27.788 0v1.806h3.83v-1.807z" style="fill:#364e59;fill-opacity:1;fill-rule:evenodd;stroke:#364e59;stroke-width:0;stroke-dasharray:none;stroke-opacity:1"/><g style="stroke-width:.856925"><path d="M15.925 19.064c0-.017 0 .017 0 0" style="fill:red;fill-rule:evenodd;stroke-width:1.19784" transform="matrix(1.14813 0 0 1.1861 -2.231 -2.378)"/><path d="M-12.391 14.517c.32 0 .58.262.58.586v7.015a.58.58 0 0 1-.58.586.58.58 0 0 1-.58-.586v-7.015c0-.324.259-.586.58-.586zm-6.569.019c.32 0 .58.262.58.586v7.015a.58.58 0 0 1-.58.586.58.58 0 0 1-.58-.586v-7.015c0-.324.259-.586.58-.586z" style="fill-rule:evenodd;stroke:#fff;stroke-width:.171385;stroke-linejoin:round" transform="matrix(-1.14813 0 0 1.1861 -2.231 -2.378)"/><path d="m12.72 14.128 2.602-.197h.35v9.685l-2.565.017c.92-2.01-.38-4.751-1.19-7.379-.36-1.167.114-1.994.114-1.994zm5.898 0-2.595-.197h-.35v9.685l2.565.017c-.917-2.002.37-4.732 1.181-7.351.366-1.181-.262-2.033-.262-2.033z" style="fill-rule:evenodd;stroke:#fff;stroke-width:.171385;stroke-linecap:butt;stroke-linejoin:bevel;stroke-dasharray:none" transform="matrix(1.14813 0 0 1.1861 -2.231 -2.378)"/><path d="M15.36 14.907h.596c.48 0 .866.386.866.866v6.843c0 .48-.386.866-.866.866h-.596a.864.864 0 0 1-.866-.866v-6.843c0-.48.386-.866.866-.866z" style="fill-rule:evenodd;stroke:#fff;stroke-width:0;stroke-linejoin:bevel" transform="matrix(1.14813 0 0 1.1861 -2.231 -2.378)"/><path d="M17.464 12.607c0 1.256-.779 2.845-1.776 2.845s-1.835-1.59-1.835-2.845.808-2.272 1.805-2.272 1.806 1.017 1.806 2.272z" style="fill-rule:evenodd;stroke:#fff;stroke-width:.171385;stroke-linejoin:round;stroke-dasharray:none" transform="matrix(1.14813 0 0 1.1861 -2.231 -2.378)"/></g><g style="stroke-width:.856925"><path d="M15.925 19.064c0-.017 0 .017 0 0" style="fill:red;fill-rule:evenodd;stroke-width:1.19784" transform="matrix(1.14813 0 0 1.1861 -11.812 -.378)"/><path d="M-12.391 14.517c.32 0 .58.262.58.586v7.015a.58.58 0 0 1-.58.586.58.58 0 0 1-.58-.586v-7.015c0-.324.259-.586.58-.586zm-6.569.019c.32 0 .58.262.58.586v7.015a.58.58 0 0 1-.58.586.58.58 0 0 1-.58-.586v-7.015c0-.324.259-.586.58-.586z" style="fill-rule:evenodd;stroke:#fff;stroke-width:.171385;stroke-linejoin:round" transform="matrix(-1.14813 0 0 1.1861 -11.812 -.378)"/><path d="m12.72 14.128 2.602-.197h.35v9.685l-2.565.017c.92-2.01-.38-4.751-1.19-7.379-.36-1.167.114-1.994.114-1.994zm5.898 0-2.595-.197h-.35v9.685l2.565.017c-.917-2.002.37-4.732 1.181-7.351.366-1.181-.262-2.033-.262-2.033z" style="fill-rule:evenodd;stroke:#fff;stroke-width:.171385;stroke-linecap:butt;stroke-linejoin:bevel;stroke-dasharray:none" transform="matrix(1.14813 0 0 1.1861 -11.812 -.378)"/><path d="M15.36 14.907h.596c.48 0 .866.386.866.866v6.843c0 .48-.386.866-.866.866h-.596a.864.864 0 0 1-.866-.866v-6.843c0-.48.386-.866.866-.866z" style="fill-rule:evenodd;stroke:#fff;stroke-width:0;stroke-linejoin:bevel" transform="matrix(1.14813 0 0 1.1861 -11.812 -.378)"/><path d="M17.464 12.607c0 1.256-.779 2.845-1.776 2.845s-1.835-1.59-1.835-2.845.808-2.272 1.805-2.272 1.806 1.017 1.806 2.272z" style="fill-rule:evenodd;stroke:#fff;stroke-width:.171385;stroke-linejoin:round;stroke-dasharray:none" transform="matrix(1.14813 0 0 1.1861 -11.812 -.378)"/></g><g style="stroke-width:.856925"><path d="M15.925 19.064c0-.017 0 .017 0 0" style="fill:red;fill-rule:evenodd;stroke-width:1.19784" transform="matrix(1.14813 0 0 1.1861 7.484 -.378)"/><path d="M-12.391 14.517c.32 0 .58.262.58.586v7.015a.58.58 0 0 1-.58.586.58.58 0 0 1-.58-.586v-7.015c0-.324.259-.586.58-.586zm-6.569.019c.32 0 .58.262.58.586v7.015a.58.58 0 0 1-.58.586.58.58 0 0 1-.58-.586v-7.015c0-.324.259-.586.58-.586z" style="fill-rule:evenodd;stroke:#fff;stroke-width:.171385;stroke-linejoin:round" transform="matrix(-1.14813 0 0 1.1861 7.484 -.378)"/><path d="m12.72 14.128 2.602-.197h.35v9.685l-2.565.017c.92-2.01-.38-4.751-1.19-7.379-.36-1.167.114-1.994.114-1.994zm5.898 0-2.595-.197h-.35v9.685l2.565.017c-.917-2.002.37-4.732 1.181-7.351.366-1.181-.262-2.033-.262-2.033z" style="fill-rule:evenodd;stroke:#fff;stroke-width:.171385;stroke-linecap:butt;stroke-linejoin:bevel;stroke-dasharray:none" transform="matrix(1.14813 0 0 1.1861 7.484 -.378)"/><path d="M15.36 14.907h.596c.48 0 .866.386.866.866v6.843c0 .48-.386.866-.866.866h-.596a.864.864 0 0 1-.866-.866v-6.843c0-.48.386-.866.866-.866z" style="fill-rule:evenodd;stroke:#fff;stroke-width:0;stroke-linejoin:bevel" transform="matrix(1.14813 0 0 1.1861 7.484 -.378)"/><path d="M17.464 12.607c0 1.256-.779 2.845-1.776 2.845s-1.835-1.59-1.835-2.845.808-2.272 1.805-2.272 1.806 1.017 1.806 2.272z" style="fill-rule:evenodd;stroke:#fff;stroke-width:.171385;stroke-linejoin:round;stroke-dasharray:none" transform="matrix(1.14813 0 0 1.1861 7.484 -.378)"/></g></svg>