<svg xmlns="http://www.w3.org/2000/svg" width="32" height="32"><path d="M10.49 21.098H3.857a.4.4 0 0 1-.401-.401V8.436a.4.4 0 0 1 .401-.401h24.287a.4.4 0 0 1 .401.401v12.261a.4.4 0 0 1-.401.401h-6.626M9.78 7.828V4.769c0-.747.6-1.348 1.347-1.348h9.746c.746 0 1.348.601 1.348 1.348v3.059" style="fill:none;fill-opacity:0;fill-rule:evenodd;stroke:#fff;stroke-width:1;stroke-linejoin:bevel;stroke-dasharray:none;stroke-opacity:1"/><ellipse cx="6.637" cy="11.177" rx="1.054" ry="1.109" style="fill:#fff;fill-opacity:1;fill-rule:evenodd;stroke:#fff;stroke-width:0;stroke-linejoin:bevel;stroke-dasharray:none;stroke-opacity:1"/><rect width="12.149" height="12.598" x="9.926" y="15.88" fill="none" ry="0" style="fill:#000;fill-opacity:0;fill-rule:evenodd;stroke:#fff;stroke-width:.999999;stroke-linejoin:miter;stroke-dasharray:none;stroke-opacity:1"/><path d="M-17.268 21.713h8.29a1 1 135 0 0 1-1h-8.29a1 1 135 0 0-1 1" style="fill-rule:evenodd;stroke-width:.905383;fill:#fff" transform="matrix(1 0 0 1.21993 28.77 -7.095)"/><path d="M-17.268 21.713h8.29a1 1 0 0 0 1-1h-8.29a1 1 0 0 0-1 1" style="fill-rule:evenodd;stroke-width:.905383;fill:#fff" transform="matrix(1 0 0 1.21993 28.845 -3.832)"/><path d="M-17.268 21.713h8.29a1 1 135 0 0 1-1h-8.29a1 1 135 0 0-1 1" style="fill-rule:evenodd;stroke-width:.905383;fill:#fff" transform="matrix(1 0 0 1.21993 28.92 -.417)"/></svg>