<svg xmlns="http://www.w3.org/2000/svg" width="32" height="32"><path d="M2.135 16.475V7.447a2 1.99 0 0 1 2-1.99h23.748a2 1.99 0 0 1 2 1.99v9.022" style="fill:none;fill-opacity:0;fill-rule:evenodd;stroke:#364e59;stroke-width:.4;stroke-linejoin:bevel;stroke-dasharray:none;stroke-opacity:1"/><path d="M2.222 8.035H29.86v.257H2.222z" style="fill:#364e59;fill-opacity:1;fill-rule:evenodd;stroke:#005c94;stroke-width:0;stroke-linejoin:bevel;stroke-dasharray:none"/><path d="M5.287-7.824h10.946v.257H5.287zM5.251-13.361h11v.257h-11zM5.269-18.897h11v.257h-11zM5.31-24.433h11v.257h-11z" style="fill:#364e59;fill-opacity:1;fill-rule:evenodd;stroke:#005c94;stroke-width:0;stroke-linejoin:bevel;stroke-dasharray:none" transform="rotate(90)"/><path d="M2.222 10.762H29.86v.257H2.222zM2.222 13.49H29.86v.257H2.222zM2.222 16.218H29.86v.257H2.222z" style="fill:#364e59;fill-opacity:1;fill-rule:evenodd;stroke:#005c94;stroke-width:0;stroke-linejoin:bevel;stroke-dasharray:none"/><g style="stroke-width:.856925"><path d="M15.925 19.064c0-.017 0 .017 0 0" style="fill:red;fill-rule:evenodd;stroke-width:1.19784" transform="matrix(1.14813 0 0 1.1861 -1.943 -2.56)"/><path d="M-12.391 14.517c.32 0 .58.262.58.586v7.015a.58.58 0 0 1-.58.586.58.58 0 0 1-.58-.586v-7.015c0-.324.259-.586.58-.586zm-6.569.019c.32 0 .58.262.58.586v7.015a.58.58 0 0 1-.58.586.58.58 0 0 1-.58-.586v-7.015c0-.324.259-.586.58-.586z" style="fill-rule:evenodd;stroke:#fff;stroke-width:.171385;stroke-linejoin:round" transform="matrix(-1.14813 0 0 1.1861 -1.943 -2.56)"/><path d="m12.72 14.128 2.602-.197h.35v9.685l-2.565.017c.92-2.01-.38-4.751-1.19-7.379-.36-1.167.114-1.994.114-1.994zm5.898 0-2.595-.197h-.35v9.685l2.565.017c-.917-2.002.37-4.732 1.181-7.351.366-1.181-.262-2.033-.262-2.033z" style="fill-rule:evenodd;stroke:#fff;stroke-width:.171385;stroke-linecap:butt;stroke-linejoin:bevel;stroke-dasharray:none" transform="matrix(1.14813 0 0 1.1861 -1.943 -2.56)"/><path d="M15.36 14.907h.596c.48 0 .866.386.866.866v6.843c0 .48-.386.866-.866.866h-.596a.864.864 0 0 1-.866-.866v-6.843c0-.48.386-.866.866-.866z" style="fill-rule:evenodd;stroke:#fff;stroke-width:0;stroke-linejoin:bevel" transform="matrix(1.14813 0 0 1.1861 -1.943 -2.56)"/><path d="M17.464 12.607c0 1.256-.779 2.845-1.776 2.845s-1.835-1.59-1.835-2.845.808-2.272 1.805-2.272 1.806 1.017 1.806 2.272z" style="fill-rule:evenodd;stroke:#fff;stroke-width:.171385;stroke-linejoin:round;stroke-dasharray:none" transform="matrix(1.14813 0 0 1.1861 -1.943 -2.56)"/></g><g style="stroke-width:.856925"><path d="M15.925 19.064c0-.017 0 .017 0 0" style="fill:red;fill-rule:evenodd;stroke-width:1.19784" transform="matrix(1.14813 0 0 1.1861 -11.524 -.56)"/><path d="M-12.391 14.517c.32 0 .58.262.58.586v7.015a.58.58 0 0 1-.58.586.58.58 0 0 1-.58-.586v-7.015c0-.324.259-.586.58-.586zm-6.569.019c.32 0 .58.262.58.586v7.015a.58.58 0 0 1-.58.586.58.58 0 0 1-.58-.586v-7.015c0-.324.259-.586.58-.586z" style="fill-rule:evenodd;stroke:#fff;stroke-width:.171385;stroke-linejoin:round" transform="matrix(-1.14813 0 0 1.1861 -11.524 -.56)"/><path d="m12.72 14.128 2.602-.197h.35v9.685l-2.565.017c.92-2.01-.38-4.751-1.19-7.379-.36-1.167.114-1.994.114-1.994zm5.898 0-2.595-.197h-.35v9.685l2.565.017c-.917-2.002.37-4.732 1.181-7.351.366-1.181-.262-2.033-.262-2.033z" style="fill-rule:evenodd;stroke:#fff;stroke-width:.171385;stroke-linecap:butt;stroke-linejoin:bevel;stroke-dasharray:none" transform="matrix(1.14813 0 0 1.1861 -11.524 -.56)"/><path d="M15.36 14.907h.596c.48 0 .866.386.866.866v6.843c0 .48-.386.866-.866.866h-.596a.864.864 0 0 1-.866-.866v-6.843c0-.48.386-.866.866-.866z" style="fill-rule:evenodd;stroke:#fff;stroke-width:0;stroke-linejoin:bevel" transform="matrix(1.14813 0 0 1.1861 -11.524 -.56)"/><path d="M17.464 12.607c0 1.256-.779 2.845-1.776 2.845s-1.835-1.59-1.835-2.845.808-2.272 1.805-2.272 1.806 1.017 1.806 2.272z" style="fill-rule:evenodd;stroke:#fff;stroke-width:.171385;stroke-linejoin:round;stroke-dasharray:none" transform="matrix(1.14813 0 0 1.1861 -11.524 -.56)"/></g><g style="stroke-width:.856925"><path d="M15.925 19.064c0-.017 0 .017 0 0" style="fill:red;fill-rule:evenodd;stroke-width:1.19784" transform="matrix(1.14813 0 0 1.1861 7.772 -.56)"/><path d="M-12.391 14.517c.32 0 .58.262.58.586v7.015a.58.58 0 0 1-.58.586.58.58 0 0 1-.58-.586v-7.015c0-.324.259-.586.58-.586zm-6.569.019c.32 0 .58.262.58.586v7.015a.58.58 0 0 1-.58.586.58.58 0 0 1-.58-.586v-7.015c0-.324.259-.586.58-.586z" style="fill-rule:evenodd;stroke:#fff;stroke-width:.171385;stroke-linejoin:round" transform="matrix(-1.14813 0 0 1.1861 7.772 -.56)"/><path d="m12.72 14.128 2.602-.197h.35v9.685l-2.565.017c.92-2.01-.38-4.751-1.19-7.379-.36-1.167.114-1.994.114-1.994zm5.898 0-2.595-.197h-.35v9.685l2.565.017c-.917-2.002.37-4.732 1.181-7.351.366-1.181-.262-2.033-.262-2.033z" style="fill-rule:evenodd;stroke:#fff;stroke-width:.171385;stroke-linecap:butt;stroke-linejoin:bevel;stroke-dasharray:none" transform="matrix(1.14813 0 0 1.1861 7.772 -.56)"/><path d="M15.36 14.907h.596c.48 0 .866.386.866.866v6.843c0 .48-.386.866-.866.866h-.596a.864.864 0 0 1-.866-.866v-6.843c0-.48.386-.866.866-.866z" style="fill-rule:evenodd;stroke:#fff;stroke-width:0;stroke-linejoin:bevel" transform="matrix(1.14813 0 0 1.1861 7.772 -.56)"/><path d="M17.464 12.607c0 1.256-.779 2.845-1.776 2.845s-1.835-1.59-1.835-2.845.808-2.272 1.805-2.272 1.806 1.017 1.806 2.272z" style="fill-rule:evenodd;stroke:#fff;stroke-width:.171385;stroke-linejoin:round;stroke-dasharray:none" transform="matrix(1.14813 0 0 1.1861 7.772 -.56)"/></g></svg>