<svg xmlns="http://www.w3.org/2000/svg" width="32" height="32"><g style="stroke-width:.972741"><path d="M22.74 9.66a1.724 2.046 88.895 0 1 .36-.058c1.264-.033 2.313.813 2.344 1.888.015.551-.246 1.084-.716 1.467m-1.78 3.874c.147.022.287.04.363.038 1.263-.033 2.261-.931 2.23-2.007-.016-.55-.307-1.071-.798-1.427" style="fill:none;fill-opacity:0;fill-rule:evenodd;stroke:#000;stroke-width:.729559;stroke-linejoin:bevel" transform="matrix(.84347 0 0 1.25296 4.663 1.436)"/><path d="M18.632 7.963a1.913 2.27 88.893 0 1 1.092-1.038c1.123-.493 2.506-.118 3.09.834.367.603-.074 1.9-.074 1.9m-3.798 9.08a1.913 2.27 88.893 0 0 1.15.98c1.15.433 2.51-.013 3.038-.995.331-.62-.183-1.894-.183-1.894" style="fill:none;fill-opacity:0;fill-rule:evenodd;stroke:#000;stroke-width:.729559;stroke-linejoin:bevel" transform="matrix(.84347 0 0 1.25296 4.663 1.436)"/><path d="M14.766 6.291a2.017 2.394 88.893 0 1 1.635-.447 2.003 2.378 88.893 0 1 2.231 2.12c-.052.7-.534 1.332-1.27 1.666m-2.185 10.98a2.73 2.73 0 0 0 1.658.36 2.003 2.378 88.893 0 0 2.106-2.23c-.092-.698-.61-1.303-1.364-1.6m-6.75-8.86a1.913 2.27 88.893 0 1 .235-1.369c.621-.93 2.025-1.261 3.137-.739.257.122.485.283.67.474M11.13 18.83a1.848 2.105 89.037 0 0 .314 1.354c.674.897 2.095 1.153 3.175.576a1.983 2.353 88.894 0 0 .641-.509m-8.714-6.847a1.913 2.27 88.893 0 1-.963-1.114c-.322-1.028.42-2.088 1.654-2.369a1.957 2.322 88.893 0 1 2.187.457m-2.862 3.559c-.46.282-.78.696-.898 1.162-.262 1.043.54 2.064 1.788 2.28a1.957 2.322 88.893 0 0 2.157-.57" style="fill:none;fill-opacity:0;fill-rule:evenodd;stroke:#000;stroke-width:.729559;stroke-linejoin:bevel" transform="matrix(.84347 0 0 1.25296 4.663 1.436)"/><path d="M8.186 9.934a1.913 2.27 88.893 0 1-.964-1.113c-.32-1.027.42-2.088 1.654-2.367a1.957 2.322 88.893 0 1 2.187.456M8.398 17.312a1.922 2.19 89.036 0 0-.898 1.164c-.26 1.042.54 2.061 1.788 2.277a1.957 2.322 88.893 0 0 2.157-.57" style="fill:none;fill-opacity:0;fill-rule:evenodd;stroke:#000;stroke-width:.729559;stroke-linejoin:bevel" transform="matrix(.84347 0 0 1.25296 4.663 1.436)"/><path d="M15.985 9.24c-.475.026.192-.027.737.026.32.031.666.372.668.698 0 .541-.147 1.193-.058.77m-1.107 6.869c-.475-.002.195.016.736-.065.317-.048.643-.406.626-.733-.03-.538-.215-1.182-.102-.764" style="fill:none;fill-opacity:0;fill-rule:evenodd;stroke:#000;stroke-width:.729555;stroke-linejoin:bevel" transform="matrix(.84347 0 0 1.25296 4.663 1.436)"/><path d="M10.011 8.878c-.204.362.067-.155.39-.53.189-.222.712-.314 1.051-.16.563.259 1.167.68.772.412m-1.943 9.674c-.225-.35.077.152.42.51.202.212.729.276 1.06.103.545-.286 1.126-.738.746-.45" style="fill:none;fill-opacity:0;fill-rule:evenodd;stroke:#000;stroke-width:.729559;stroke-linejoin:bevel" transform="matrix(.84347 0 0 1.25296 4.663 1.436)"/><path d="M19.9 12.697c.086.495-.047-.196-.087-.802-.024-.355.167-.872.399-1.015.382-.237.865-.361.553-.272m-.83 3.34c.059-.5-.034.197-.04.804-.003.357.218.862.457.993.394.215.884.316.568.243" style="fill:none;fill-opacity:0;fill-rule:evenodd;stroke:#000;stroke-width:.729555;stroke-linejoin:bevel" transform="matrix(.84347 0 0 1.25296 4.663 1.436)"/><path d="M8.993 11.29c.049.346-.024-.135-.048-.556-.015-.247.082-.604.2-.702.196-.163.444-.248.283-.187m-.301 6.074c.027-.346-.017.137-.017.558 0 .247.118.601.24.692.205.151.458.223.294.171" style="fill:none;fill-opacity:0;fill-rule:evenodd;stroke:#000;stroke-width:.729559;stroke-linejoin:bevel" transform="matrix(.84347 0 0 1.25296 4.663 1.436)"/><path d="m22.994 9.558-.095.405-.787.122.348-.696zm.212 7.36-.118-.398-.793-.082.388.677z" style="fill-rule:evenodd;stroke:#000;stroke-width:0;stroke-linejoin:bevel" transform="matrix(.84347 0 0 1.25296 4.663 1.436)"/><path d="m24.976 12.557.018.633-18.89.492-.019-.632Zm.037 1.264-.019-.632-18.89.492.018.632z" style="fill:#000;fill-opacity:1;fill-rule:evenodd;stroke:#000;stroke-width:0;stroke-linejoin:bevel;stroke-dasharray:none" transform="matrix(.84347 0 0 1.25296 4.663 1.436)"/><path d="M5.944 11.506c.174-.715.935-1.278 1.757-1.3.38-.01.58.01.817.09l.155.053.017.447c.025.744.101 1.032.282 1.066.108.02.17-.017.241-.145.062-.114.067-.232.03-.81l-.019-.321.224-.185c.177-.147.232-.214.266-.315.087-.266.006-.643-.154-.727-.078-.04-.09-.039-.224.02a1.536 1.461 0 0 0-.289.184l-.147.123-.272-.07a1.724 2.046 88.895 0 0-.343-.07c-.131.002-.465-.353-.602-.641-.413-.87.207-1.876 1.31-2.128.464-.108 1.108-.03 1.475.178l.094.053-.072.191c-.04.107-.086.302-.103.434-.03.236-.033.242-.15.311-.121.073-.4.416-.58.717-.083.139-.095.183-.076.283a.5.475 0 0 0 .446.387c.155.013.21-.035.498-.441.115-.161.246-.314.29-.34a.603.716 88.895 0 1 .265-.066c.17-.016.2-.01.38.075.106.051.296.153.42.225.408.237.444.252.574.248.314-.008.379-.351.112-.576-.242-.204-1.097-.648-1.294-.675-.105-.014-.108-.017-.091-.113.122-.654.644-1.163 1.383-1.346a1.81 2.148 88.894 0 1 1.092.02 2.2 2.2 0 0 1 .746.381c.088.073.177.125.198.117a4.31 5.115 88.893 0 0 .337-.217c.487-.332.829-.438 1.38-.431.505.006.934.153 1.3.447q.54.432.603 1.064c.04.376-.042.663-.286 1.014-.11.16-.425.454-.486.455a.3.3 0 0 1-.107-.068c-.212-.18-.483-.234-1.127-.226-.319.002-.386.01-.479.059-.242.127-.324.462-.146.604.088.07.102.073.544.077.32.002.482.016.554.045a.63.747 88.893 0 1 .317.345c.012.05.003.276-.022.503-.054.486-.051.55.031.638.048.05.095.068.209.07.13.005.16-.006.274-.096a.517.614 88.894 0 0 .155-.201c.043-.139.107-.713.103-.924l-.005-.175.13-.07c.209-.113.568-.442.736-.674a2.326 2.762 88.893 0 0 .366-.81c.103-.555.661-1.035 1.38-1.183a2.2 2.2 0 0 1 1.647.351c.16.113.403.385.466.522.172.383.061 1.238-.24 1.836-.076.154-.133.285-.125.292a2.586 3.069 88.893 0 0 .427-.058c.537-.09.858-.097 1.136-.026.914.232 1.485.978 1.348 1.757a1.6 1.6 0 0 1-.307.69l-.079.09-2.204.057c-1.735.046-2.207.05-2.22.025-.033-.074-.083-.774-.066-.9.025-.17.115-.364.209-.443a2.068 2.455 88.892 0 1 .394-.2c.275-.12.326-.154.371-.241a.723.86 88.89 0 0-.026-.54c-.12-.186-.235-.184-.665.01-.496.222-.684.439-.854.983-.057.184-.064.27-.052.683.009.257.028.522.042.585l.026.114-12.998.338-.146-.125c-.414-.353-.615-.909-.501-1.38Zm.126 4.357c.214.705 1.006 1.227 1.829 1.206.38-.01.579-.04.81-.133l.152-.059-.009-.448c-.017-.746.042-1.037.22-1.08.107-.025.17.009.25.132.068.11.08.228.077.807l-.001.324.234.173c.185.137.244.198.284.3.102.26.043.641-.112.732-.076.045-.089.045-.226-.008a1.349 1.536 89.037 0 1-.298-.169l-.154-.114-.269.085c-.148.047-.3.085-.338.086-.13.006-.443.377-.564.672-.362.89.315 1.863 1.43 2.057.47.082 1.11-.03 1.463-.255l.09-.058-.081-.187a2.586 3.069 88.893 0 1-.128-.428c-.044-.234-.048-.24-.168-.303-.125-.065-.423-.394-.62-.686-.091-.133-.105-.177-.093-.278a.5.475 0 0 1 .423-.41c.155-.02.211.025.523.416.124.154.264.3.31.324a.603.716 88.895 0 0 .267.05c.171.009.2 0 .375-.093a6.033 7.161 88.893 0 0 .408-.247c.393-.257.428-.274.558-.277.314-.008.399.331.145.57-.23.215-1.058.704-1.253.74-.105.02-.108.023-.085.117.16.648.71 1.13 1.46 1.273.302.06.805.023 1.088-.077a1.724 2.046 88.895 0 0 .723-.42c.084-.077.17-.133.19-.127.024.007.18.098.35.2.505.306.853.394 1.402.36a1.577 1.872 88.894 0 0 1.273-.516 1.62 1.924 88.893 0 0 .541-1.093c.019-.379-.08-.66-.344-.999-.12-.152-.45-.43-.511-.428-.016 0-.062.033-.104.072-.2.191-.468.261-1.112.287-.318.014-.386.008-.481-.035-.25-.115-.35-.446-.181-.596.084-.074.098-.076.539-.105.32-.02.48-.04.55-.073a.63.747 88.893 0 0 .297-.361c.01-.051-.013-.277-.051-.501-.082-.484-.083-.548-.005-.64.044-.053.09-.072.204-.08.13-.011.16-.003.279.081a.517.614 88.894 0 1 .167.193c.05.136.147.707.155.917l.005.174.135.064c.215.103.592.412.773.634a2.293 2.612 89.037 0 1 .412.79c.135.55.72 1 1.446 1.11a2.2 2.2 0 0 0 1.626-.437c.152-.12.378-.404.434-.545.15-.39-.01-1.239-.345-1.82-.086-.151-.15-.278-.142-.286a2.586 3.069 88.893 0 1 .43.037c.541.062.862.052 1.136-.033.898-.28 1.426-1.054 1.244-1.825a1.64 1.64 0 0 0-.346-.674l-.084-.085-2.204.057c-1.735.045-2.207.065-2.218.092-.028.075-.039.777-.015.901.035.17.137.358.236.432.04.03.222.112.403.18.282.105.334.135.385.22a.723.86 88.89 0 1 .006.54c-.11.194-.224.197-.665.027-.508-.197-.709-.404-.91-.938-.068-.181-.08-.269-.09-.679a6.07 6.914 89.037 0 1 .007-.586l.02-.115-12.998.339-.139.131c-.393.374-.561.939-.42 1.405z" style="fill:#f1d4ff;fill-opacity:1;fill-rule:evenodd;stroke:#f1d4ff;stroke-width:.389095;stroke-linejoin:bevel;stroke-dasharray:none;stroke-opacity:1" transform="matrix(.84347 0 0 1.25296 4.663 1.436)"/></g><path d="m26.032 15.37-16.544.032q0 .023-.003.044a7.6 7.6 0 0 0 .01 1.343c.282 3.018-6.113 6.56-2.211 6.9 1.328.116-2.078 3.49 1.635 2.565.426-.106-.685.332-.895.325-1.742-.056 0 .925-.155 1.315-1.01 2.546-1.801 4.114 1.766 3.396 3.162-.636 6.235-.476 9.523-.494 13.18-.072.514 1.385 5.095-5.775 2.168-3.39 2.65-6.88 1.78-9.652zM19.815 1.057c-1.227-.228-2.488 0-3.735.831l8.56 11.712 1.226 1.69s-.088-.129-.331-.47l.317.435c1.935-2.853 2.036-6.567-.398-9.91-1.642-2.256-3.594-3.908-5.64-4.288z" style="fill:#000;fill-opacity:1;fill-rule:evenodd;stroke:#000;stroke-width:.0999997"/><path d="m6.25 2.334 4.14.113-3.64 7.755 4.142.176-1.678 2.987-4.003 8.746-.335.652-.026-.217c.09-1.201.024-.233.033-.348l.02-.322.1-.814.833-7.762-3.163-.086z" style="fill:#f1b316;fill-rule:evenodd;stroke:#efa900;stroke-width:1.45373" transform="matrix(-.29933 .23193 -.18133 -.2547 17.596 6.009)"/><path d="m6.25 2.334 4.14.113-3.64 7.755 4.142.176-1.678 2.987-4.003 8.746-.335.652-.026-.217c.09-1.201.024-.233.033-.348l.02-.322.1-.814.833-7.762-3.163-.086z" style="fill:#f1b316;fill-rule:evenodd;stroke:#efa900;stroke-width:1.45373" transform="matrix(-.17495 .32834 -.27149 -.16665 12.371 5.928)"/><path d="m6.25 2.334 4.14.113-3.64 7.755 4.142.176-1.678 2.987-4.003 8.746-.335.652-.026-.217c.09-1.201.024-.233.033-.348l.02-.322.1-.814.833-7.762-3.163-.086z" style="fill:#f1b316;fill-rule:evenodd;stroke:#efa900;stroke-width:1.45373" transform="matrix(.0401 .36747 -.32353 -.01469 9.667 9.314)"/></svg>