<svg xmlns="http://www.w3.org/2000/svg" width="32" height="32"><path d="M18.65 13.92a6.949 6.707 8.902 0 1-.717-.943 6.949 6.707 8.902 0 1-.953-4.53 6.949 6.707 8.902 0 1 7.903-5.55 6.949 6.707 8.902 0 1 5.9 6.41" style="fill:none;fill-opacity:0;fill-rule:evenodd;stroke:#000;stroke-width:2.00001;stroke-dasharray:none;stroke-opacity:1"/><rect width="24.12" height="21" x=".526" y="10.372" ry="6.257" style="fill:#000;fill-opacity:1;fill-rule:evenodd;stroke:#000;stroke-width:0;stroke-linejoin:bevel;stroke-dasharray:none;stroke-opacity:1"/><path d="M12.585 16.164a2.302 2.288 0 0 0-2.3 2.287 2.302 2.288 0 0 0 1.272 2.044l-.607 5.086h3.27l-.607-5.086a2.302 2.288 0 0 0 1.273-2.043 2.302 2.288 0 0 0-2.3-2.29z" style="fill:#fff;fill-opacity:1;fill-rule:evenodd;stroke:#000;stroke-width:0;stroke-linejoin:bevel;stroke-dasharray:none;stroke-opacity:1"/></svg>